PathFileType	4	(X/Y/Z)	C:/Users/opensim2020/Desktop/walking_exp_matlab/subject01_walking07_straight_04.trc																																																																																																																															
DataRate	CameraRate	NumFrames	NumMarkers	Units	OrigDataRate	OrigDataStartFrame	OrigNumFrames																																																																																																																											
100	100	8	43	mm	100	2790	176																																																																																																																											
Frame#	Time	LFHD			RFHD			LBHD			RBHD			C7			T10			CLAV			STRN			RBAK			LSHO			LUPA			LELB			LFRM			LWRA			LWRB			LFIN			RSHO			RUPA			RELB			RFRM			RWRA			RWRB			RFIN			LASI			RASI			LPSI			RPSI			LTHI			LKNE			LTIB			LANK			LHEE			LTOE			RTHI			RKNE			RTIB			RANK			RHEE			RTOE			*39			*40			*41			*42		
		X1	Y1	Z1	X2	Y2	Z2	X3	Y3	Z3	X4	Y4	Z4	X5	Y5	Z5	X6	Y6	Z6	X7	Y7	Z7	X8	Y8	Z8	X9	Y9	Z9	X10	Y10	Z10	X11	Y11	Z11	X12	Y12	Z12	X13	Y13	Z13	X14	Y14	Z14	X15	Y15	Z15	X16	Y16	Z16	X17	Y17	Z17	X18	Y18	Z18	X19	Y19	Z19	X20	Y20	Z20	X21	Y21	Z21	X22	Y22	Z22	X23	Y23	Z23	X24	Y24	Z24	X25	Y25	Z25	X26	Y26	Z26	X27	Y27	Z27	X28	Y28	Z28	X29	Y29	Z29	X30	Y30	Z30	X31	Y31	Z31	X32	Y32	Z32	X33	Y33	Z33	X34	Y34	Z34	X35	Y35	Z35	X36	Y36	Z36	X37	Y37	Z37	X38	Y38	Z38	X39	Y39	Z39	X40	Y40	Z40	X41	Y41	Z41	X42	Y42	Z42	X43	Y43	Z43
																																																																																																																																		
23	0.22	-593.16394	1655.2124	995.4801	-553.72723	1661.14124	1104.3374	-708.7934	1625.01892	1031.82654	-671.49847	1631.4491	1147.33423	-755.28485	1428.448	1062.17883	-799.36456	1135.31482	1072.52808	-612.48584	1358.52783	1071.21033	-574.06433	1202.60059	1066.98364	-818.0376	1235.91931	1135.8335	-659.09912	1389.87061	907.8811	-636.14093	1209.07935	819.47144	-599.55627	1060.31006	814.10938	-505.84912	988.2149	806.66034	-383.96829	935.53088	848.31671	-420.40509	901.13568	815.55524	-340.96738	872.8728	819.56281	-683.00806	1389.72046	1219.29089	-774.96735	1196.69995	1306.2113	-790.11884	1073.43909	1303.3623	-789.14313	953.75903	1334.36169	-730.3374	822.9458	1324.43762	-778.20807	833.06958	1357.40027	-759.02692	747.28015	1354.28394	-631.78583	927.13586	963.37671	-620.83142	932.1424	1180.70398	-814.38959	939.60297	1029.12134	-805.74866	939.5105	1173.73425	-718.02118	598.18439	923.70288	-758.98413	466.633	941.57581	-852.74658	299.99945	939.52197	-930.01245	95.58786	1000.5014	-979.69495	76.62826	1053.31519	-791.46918	38.13972	995.48004	-605.12317	607.11865	1261.43787	-538.79907	465.76126	1234.65759	-529.3056	293.74628	1254.13013	-470.78107	89.11359	1220.77844	-499.33853	33.84134	1170.66687	-325.64557	94.89259	1224.60925	-566.65198	1695.71289	1082.77246	-1973.11475	1023.41888	3101.83887	-2012.51599	1021.99542	3140.65234	NaN	NaN	NaN
24	0.23	-584.57141	1654.62524	997.68658	-544.89142	1660.3894	1106.48083	-700.1875	1624.41394	1034.33496	-662.62158	1630.8042	1149.77429	-746.56079	1427.55359	1064.64685	-789.8465	1134.2616	1074.48938	-603.55518	1357.95605	1073.3208	-564.81793	1202.0769	1068.75293	-808.71588	1234.68677	1138.09119	-650.65881	1389.55591	910.03186	-627.67908	1208.93494	821.36487	-591.18854	1060.35718	815.2915	-496.76831	988.26678	807.70264	-375.12061	935.59235	849.19934	-411.74509	901.22052	816.62579	-332.04785	873.52399	819.60333	-673.91949	1388.73889	1221.80334	-765.24487	1195.25317	1308.55103	-780.146	1071.93726	1305.51355	-779.15582	952.28461	1336.44983	-720.30853	821.60602	1326.47083	-768.00446	831.65607	1359.78748	-749.04651	745.76294	1356.08911	-622.01788	926.56293	964.39276	-610.58862	931.36371	1181.90649	-804.60492	938.70856	1030.73242	-795.77625	938.3183	1175.20435	-710.19934	598.01373	924.11096	-751.87555	466.61768	941.81512	-848.11285	301.30728	939.34546	-928.47766	97.66876	1000.02252	-978.96472	79.951	1052.5083	-791.45032	38.23069	995.39758	-592.63507	606.70062	1261.45337	-528.01166	464.61462	1234.46143	-520.3653	292.36423	1253.73169	-463.77145	87.21494	1219.91626	-492.76587	32.15888	1169.84863	-318.63129	92.05321	1223.01196	-557.88782	1695.05225	1085.04785	-1973.18872	1023.26428	3101.92529	-2012.5127	1022.01959	3140.58057	NaN	NaN	NaN
25	0.24	-576.20264	1654.04944	999.9729	-536.12775	1659.74011	1108.75549	-691.68286	1623.87061	1037.06055	-653.73175	1630.13477	1152.30469	-737.79907	1426.65063	1067.1615	-780.15015	1133.15271	1076.4071	-594.53052	1357.44604	1075.45178	-555.40143	1201.73279	1070.55884	-799.34515	1233.47595	1140.36279	-642.13336	1389.26233	912.33466	-619.58368	1208.75598	823.35132	-582.60541	1060.17456	816.79602	-488.60117	988.23615	808.99463	-366.6951	935.34119	850.03412	-403.54272	901.10858	817.39722	-323.87085	873.20349	820.42383	-664.82355	1387.4917	1223.94678	-755.32355	1193.67651	1310.83838	-769.95514	1070.44861	1307.75623	-768.83514	950.89813	1338.604	-710.11609	820.04492	1328.34668	-757.69556	830.10358	1361.54907	-738.72662	744.11029	1357.76868	-612.14264	925.97827	965.49561	-600.15082	930.59796	1183.19775	-794.62805	937.84796	1032.3468	-785.80219	937.12921	1176.68188	-701.82642	597.82269	924.6192	-744.30225	466.60156	942.0517	-843.02148	302.65454	939.172	-927.1861	100.34654	999.05066	-977.94141	83.35349	1051.65771	-791.07062	38.21836	995.35046	-579.95453	606.35168	1261.52246	-517.32147	463.82062	1234.23657	-512.4278	290.44882	1253.00732	-458.80283	84.88589	1218.54724	-488.76233	30.64328	1168.48938	-313.67142	87.95813	1221.62573	-549.09143	1694.55872	1087.36267	-1973.09521	1023.58655	3101.92407	-2012.49927	1022.02051	3140.59424	NaN	NaN	NaN
26	0.25	-567.95227	1653.45313	1002.35565	-527.40424	1659.11511	1111.04443	-683.19836	1623.33398	1039.78711	-644.90857	1629.48059	1155.02271	-729.00629	1425.7157	1069.79163	-770.34064	1132.06262	1078.3429	-585.47736	1357.03296	1077.79626	-545.84552	1201.37134	1072.47241	-789.84924	1232.229	1142.61414	-633.53754	1388.99658	914.77289	-611.61694	1208.63477	825.48395	-574.55579	1059.94836	818.32422	-480.57544	987.99164	810.1792	-358.66727	934.80548	850.9259	-395.582	900.72296	818.24463	-315.91046	872.53998	821.08582	-655.77472	1386.4364	1226.44019	-745.32281	1192.14893	1313.14246	-759.57935	1068.92822	1310.10779	-758.27631	949.36334	1340.99744	-699.56281	818.57251	1330.50952	-747.17206	828.69873	1363.72156	-728.14502	742.68262	1359.86426	-602.00854	925.36407	966.85437	-589.52057	929.91504	1184.72925	-784.42151	937.05414	1033.88538	-775.44183	935.87097	1178.10828	-693.16864	597.56598	925.17529	-736.20361	466.39035	942.31805	-837.63849	304.03485	938.93427	-925.41461	102.83037	998.23004	-976.77698	87.01748	1050.44312	-791.20673	38.08745	994.91052	-567.13312	605.70123	1261.27417	-506.43359	462.55933	1233.91687	-505.17926	288.38089	1252.17139	-455.26743	82.42632	1216.83582	-487.20123	30.26941	1167.14343	-310.57007	83.15148	1220.4519	-540.45758	1693.95532	1089.6748	-1973.14795	1023.4303	3101.92114	-2012.60449	1022.0506	3140.68921	NaN	NaN	NaN
27	0.26	-559.53967	1652.87622	1004.87714	-518.71002	1658.46301	1113.45947	-674.75745	1622.70422	1042.66724	-636.05298	1628.76721	1157.69031	-720.30798	1424.75757	1072.51477	-760.37286	1130.92273	1080.35168	-576.47601	1356.54614	1080.14587	-536.19214	1201.11816	1074.46497	-780.27283	1230.92114	1144.92542	-624.89795	1388.72314	917.26501	-603.57587	1208.38049	827.57446	-566.5625	1059.75378	820.0318	-472.89459	987.59473	811.36102	-351.1041	933.84174	851.7807	-388.20483	899.96057	819.14807	-308.44949	871.94312	821.30878	-646.62415	1385.38306	1228.96777	-735.0946	1190.60278	1315.70728	-748.99188	1067.43176	1312.57983	-747.47119	947.93323	1343.34583	-688.74585	817.16071	1332.71155	-736.15973	827.19171	1366.03271	-717.29224	741.32471	1362.45789	-591.65759	924.70856	968.28137	-578.76263	929.30103	1186.32581	-773.97894	936.24408	1035.47986	-764.92352	934.59705	1179.59021	-684.14178	597.18597	925.94269	-727.74579	466.17169	942.57874	-832.07739	305.51746	938.48846	-923.56958	105.68086	997.19641	-975.39191	90.92168	1049.3042	-791.01746	38.08799	994.69629	-554.90497	605.00018	1260.6449	-496.23553	461.05536	1233.68274	-498.44608	286.0943	1251.23035	-452.75922	80.15192	1215.33337	-486.6702	29.28258	1165.91394	-308.06979	77.13132	1218.75098	-531.84808	1693.15271	1092.11951	-1973.17004	1023.44873	3102.01563	-2012.51013	1022.00336	3140.65405	NaN	NaN	NaN
28	0.27	-551.16498	1652.50854	1007.42432	-510.02094	1657.99475	1115.88171	-666.28589	1622.14709	1045.54224	-627.24023	1628.15491	1160.54321	-711.75165	1423.84229	1075.29248	-750.29492	1129.76367	1082.41003	-567.28198	1356.1156	1082.67505	-526.45819	1200.96887	1076.50586	-770.59192	1229.51978	1147.22009	-616.16992	1388.48389	919.86609	-595.46698	1208.17261	829.71185	-559.0274	1059.53845	821.59808	-465.55194	986.94891	812.61108	-343.92261	932.6153	852.65314	-380.974	899.02325	819.6275	-301.62549	870.336	822.42395	-637.4845	1384.46814	1231.6377	-724.82318	1189.04504	1318.33765	-738.25592	1065.96362	1315.151	-736.50061	946.53021	1345.83093	-677.61572	815.8454	1335.06543	-724.95111	825.78204	1368.43604	-706.09045	740.03473	1364.98157	-581.10645	924.06366	969.7287	-568.07043	928.67963	1187.89221	-763.47662	935.52673	1037.10022	-754.31702	933.41315	1181.40027	-674.63184	596.70776	926.80371	-718.6601	465.823	942.98779	-825.54022	306.84399	938.49677	-921.6615	108.94569	995.92609	-973.81451	95.32318	1047.91211	-790.5083	38.07043	994.70294	-543.50555	604.24438	1259.49146	-486.83783	459.39618	1234.25952	-492.20023	284.24661	1249.50684	-449.43228	79.39211	1214.17859	-485.25021	30.13624	1165.20972	-304.84064	70.47402	1217.71948	-523.24182	1692.8125	1094.75745	-1973.18665	1023.33337	3101.97998	-2012.54529	1022.01117	3140.71851	NaN	NaN	NaN
29	0.28	-542.8056	1652.55054	1009.96625	-501.28766	1657.94385	1118.37036	-657.70062	1621.90173	1048.5293	-618.32092	1627.85876	1163.4209	-703.02216	1423.25476	1078.31738	-740.14716	1128.86768	1084.53931	-558.12262	1355.91467	1085.09241	-516.70837	1201.20532	1078.63647	-760.81403	1228.15503	1149.59143	-607.45728	1388.47729	922.52765	-587.40784	1208.02393	831.93738	-551.72546	1059.18713	823.32629	-458.72668	986.14624	813.81934	-337.18265	931.02679	853.49982	-374.79044	897.73816	820.73071	-295.29813	868.56873	822.89716	-628.20923	1383.65564	1234.42969	-714.47949	1187.42761	1320.62744	-727.23975	1064.44495	1317.69678	-725.22791	945.11169	1348.48962	-666.2854	814.44922	1337.38354	-713.55902	824.33868	1370.89844	-694.57697	738.51056	1367.17725	-570.36145	923.46973	971.24744	-557.7854	928.32001	1189.33459	-752.97748	934.90247	1038.71033	-743.43713	932.34888	1183.32617	-664.64514	596.15875	927.86121	-708.97876	465.27112	943.71393	-818.73895	308.3165	938.4895	-919.07397	112.17288	994.70331	-971.84265	100.16767	1046.27905	-790.29047	38.19045	994.6059	-532.77661	604.50348	1258.5271	-477.44916	458.86572	1235.07739	-485.25327	283.68683	1247.8584	-444.85229	79.52448	1214.33374	-483.16177	31.86633	1165.38037	-300.70691	65.24612	1217.21289	-514.74927	1692.51538	1097.34827	-1973.17078	1023.3714	3101.9729	-2012.50403	1021.91449	3140.59692	NaN	NaN	NaN
30	0.29	-534.18481	1653.10193	1012.60101	-492.33505	1658.47119	1120.98889	-648.93445	1622.22424	1051.50574	-609.19635	1628.14038	1166.32178	-694.12183	1423.15906	1081.28113	-729.96021	1128.54358	1086.48938	-548.94824	1356.30994	1087.68701	-507.02313	1201.70752	1080.76819	-751.02472	1227.21277	1151.89075	-598.76508	1388.77478	925.06635	-579.33911	1207.96765	834.16058	-544.46997	1058.8457	825.26947	-452.40125	985.07037	815.05054	-330.92813	929.151	854.34711	-368.79083	896.19836	821.64996	-289.65274	866.46033	823.42017	-618.95648	1383.21191	1237.18494	-703.78888	1186.05139	1323.28699	-716.09131	1063.12415	1320.46985	-713.71167	943.81372	1351.14307	-654.66858	813.13843	1339.65369	-701.84888	823.04169	1373.34241	-682.7066	737.38184	1369.64636	-559.59747	923.03662	972.99121	-547.49402	928.27747	1190.74377	-742.38898	934.43188	1040.26208	-732.5979	931.79974	1185.34778	-654.07117	595.5506	929.17426	-698.58179	464.66748	944.63989	-811.24683	309.97311	938.69342	-916.10992	116.03281	993.52692	-969.38245	105.65597	1044.70813	-789.8941	38.22766	994.6864	-522.96704	605.08502	1258.4635	-467.36459	459.52451	1235.83826	-476.96234	284.89728	1248.01733	-440.77936	79.30582	1215.12842	-481.2793	33.44761	1166.55994	-297.14203	61.02475	1215.88049	-506.11066	1692.86365	1100.09888	-1973.18872	1023.18726	3101.99219	-2012.54346	1021.92236	3140.7168	NaN	NaN	NaN
